<?xml version="1.0" ?><svg data-name="Layer 1" id="Layer_1" viewBox="0 0 64 64" xmlns="http://www.w3.org/2000/svg"><defs><style>.cls-1{fill:#4fbe9f;}.cls-2{fill:#09816c;}</style></defs><title/><path class="cls-1" d="M56.55,29.91,54.83,12.66a3.89,3.89,0,0,0-3.61-3.5L34.58,8a3.85,3.85,0,0,0-3,1.1L9.18,30.93a3.89,3.89,0,0,0,0,5.55L27.52,54.86a3.9,3.9,0,0,0,5.48,0l22.39-21.8a3.87,3.87,0,0,0,1.16-3.18Zm-16.73,6-.47.8a1.45,1.45,0,0,1-2.06.46l-2.73-1.88a.38.38,0,0,0-.6.34l.23,3.31a1.44,1.44,0,0,1-1.44,1.54h-.93a1.44,1.44,0,0,1-1.44-1.54l.23-3.31a.38.38,0,0,0-.6-.34l-2.73,1.88a1.45,1.45,0,0,1-2.06-.46l-.47-.8a1.45,1.45,0,0,1,.59-2l3.08-1.54a.37.37,0,0,0,0-.68l-3.08-1.54a1.45,1.45,0,0,1-.59-2l.47-.8a1.45,1.45,0,0,1,2.06-.46L30,28.71a.38.38,0,0,0,.6-.34l-.23-3.31a1.44,1.44,0,0,1,1.44-1.54h.93a1.44,1.44,0,0,1,1.44,1.54L34,28.37a.38.38,0,0,0,.6.34l2.73-1.88a1.45,1.45,0,0,1,2.06.46l.47.8a1.44,1.44,0,0,1-.59,2L35.46,32l3.77,1.88A1.44,1.44,0,0,1,39.82,35.91ZM47.31,19a2,2,0,1,1,2-2,2,2,0,0,1-2,2Zm0,.73"/><path class="cls-2" d="M45.28,42.94a6.8,6.8,0,0,0,.06-9.69l-6.08-6.08a1.25,1.25,0,0,1,.09.12l.47.8a1.44,1.44,0,0,1-.59,2L35.46,32l3.77,1.88a1.44,1.44,0,0,1,.59,2l-.47.8a1.45,1.45,0,0,1-2.06.46l-2.73-1.88a.38.38,0,0,0-.6.34l.23,3.31a1.44,1.44,0,0,1-1.44,1.54h-.93a1.44,1.44,0,0,1-1.44-1.54l.23-3.31a.38.38,0,0,0-.6-.34l-2.73,1.88a1.44,1.44,0,0,1-1.57,0L33.52,45a6.81,6.81,0,0,0,9.56.07Z"/></svg>